<mxfile host="Electron" modified="2023-11-13T19:32:39.805Z" agent="Mozilla/5.0 (Windows NT 10.0; Win64; x64) AppleWebKit/537.36 (KHTML, like Gecko) draw.io/22.0.3 Chrome/114.0.5735.289 Electron/25.8.4 Safari/537.36" etag="TOU6nb7xymV-wxBF19T-" version="22.0.3" type="device">
  <diagram name="Page-1" id="bhdEEEq2-NHT4FDIxLzn">
    <mxGraphModel dx="2434" dy="828" grid="1" gridSize="10" guides="1" tooltips="1" connect="1" arrows="1" fold="1" page="1" pageScale="1" pageWidth="827" pageHeight="1169" background="#ffffff" math="0" shadow="0">
      <root>
        <mxCell id="0" />
        <mxCell id="1" parent="0" />
        <mxCell id="dJn-uZHUKYAvIJkOraK_-2" value="chapitres" style="swimlane;fontStyle=0;childLayout=stackLayout;horizontal=1;startSize=30;horizontalStack=0;resizeParent=1;resizeParentMax=0;resizeLast=0;collapsible=1;marginBottom=0;whiteSpace=wrap;html=1;labelBackgroundColor=none;fillColor=#f18ee4;strokeColor=#000000;" parent="1" vertex="1">
          <mxGeometry x="-330" y="50" width="250" height="150" as="geometry" />
        </mxCell>
        <mxCell id="dJn-uZHUKYAvIJkOraK_-3" value="id_chapitre&lt;span style=&quot;white-space: pre;&quot;&gt;&#x9;&lt;/span&gt;&lt;span style=&quot;white-space: pre;&quot;&gt;&#x9;&lt;/span&gt;INTEGER &amp;lt;pk&amp;gt;" style="text;strokeColor=none;fillColor=none;align=left;verticalAlign=middle;spacingLeft=4;spacingRight=4;overflow=hidden;points=[[0,0.5],[1,0.5]];portConstraint=eastwest;rotatable=0;whiteSpace=wrap;html=1;labelBackgroundColor=none;fontColor=#46495D;" parent="dJn-uZHUKYAvIJkOraK_-2" vertex="1">
          <mxGeometry y="30" width="250" height="30" as="geometry" />
        </mxCell>
        <mxCell id="dJn-uZHUKYAvIJkOraK_-4" value="no_chapitre&lt;span style=&quot;white-space: pre;&quot;&gt;&#x9;&lt;/span&gt;&lt;span style=&quot;white-space: pre;&quot;&gt;&#x9;&lt;/span&gt;VARCHAR(15) not null" style="text;strokeColor=none;fillColor=none;align=left;verticalAlign=middle;spacingLeft=4;spacingRight=4;overflow=hidden;points=[[0,0.5],[1,0.5]];portConstraint=eastwest;rotatable=0;whiteSpace=wrap;html=1;labelBackgroundColor=none;fontColor=#46495D;" parent="dJn-uZHUKYAvIJkOraK_-2" vertex="1">
          <mxGeometry y="60" width="250" height="30" as="geometry" />
        </mxCell>
        <mxCell id="dJn-uZHUKYAvIJkOraK_-5" value="texte&lt;span style=&quot;white-space: pre;&quot;&gt;&#x9;&lt;/span&gt;&lt;span style=&quot;white-space: pre;&quot;&gt;&#x9;&lt;/span&gt;&lt;span style=&quot;white-space: pre;&quot;&gt;&#x9;&lt;/span&gt;TEXT not null" style="text;strokeColor=none;fillColor=none;align=left;verticalAlign=middle;spacingLeft=4;spacingRight=4;overflow=hidden;points=[[0,0.5],[1,0.5]];portConstraint=eastwest;rotatable=0;whiteSpace=wrap;html=1;labelBackgroundColor=none;fontColor=#46495D;" parent="dJn-uZHUKYAvIJkOraK_-2" vertex="1">
          <mxGeometry y="90" width="250" height="30" as="geometry" />
        </mxCell>
        <mxCell id="dJn-uZHUKYAvIJkOraK_-24" value="id_livre&lt;span style=&quot;white-space: pre;&quot;&gt;&#x9;&lt;/span&gt;&lt;span style=&quot;white-space: pre;&quot;&gt;&#x9;&lt;/span&gt;&lt;span style=&quot;white-space: pre;&quot;&gt;&#x9;&lt;/span&gt;INTEGER &amp;lt;fk&amp;gt; not null" style="text;strokeColor=none;fillColor=none;align=left;verticalAlign=middle;spacingLeft=4;spacingRight=4;overflow=hidden;points=[[0,0.5],[1,0.5]];portConstraint=eastwest;rotatable=0;whiteSpace=wrap;html=1;labelBackgroundColor=none;fontColor=#46495D;" parent="dJn-uZHUKYAvIJkOraK_-2" vertex="1">
          <mxGeometry y="120" width="250" height="30" as="geometry" />
        </mxCell>
        <mxCell id="dJn-uZHUKYAvIJkOraK_-6" value="livres" style="swimlane;fontStyle=0;childLayout=stackLayout;horizontal=1;startSize=30;horizontalStack=0;resizeParent=1;resizeParentMax=0;resizeLast=0;collapsible=1;marginBottom=0;whiteSpace=wrap;html=1;swimlaneFillColor=none;labelBackgroundColor=none;fillColor=#ADDEE6;strokeColor=#000000;" parent="1" vertex="1">
          <mxGeometry y="140" width="240" height="90" as="geometry" />
        </mxCell>
        <mxCell id="dJn-uZHUKYAvIJkOraK_-7" value="id_livre&lt;span style=&quot;white-space: pre;&quot;&gt;&#x9;&lt;/span&gt;&lt;span style=&quot;white-space: pre;&quot;&gt;&#x9;&lt;/span&gt;INTEGER &amp;lt;pk&amp;gt;" style="text;strokeColor=none;fillColor=none;align=left;verticalAlign=middle;spacingLeft=4;spacingRight=4;overflow=hidden;points=[[0,0.5],[1,0.5]];portConstraint=eastwest;rotatable=0;whiteSpace=wrap;html=1;labelBackgroundColor=none;fontColor=#46495D;" parent="dJn-uZHUKYAvIJkOraK_-6" vertex="1">
          <mxGeometry y="30" width="240" height="30" as="geometry" />
        </mxCell>
        <mxCell id="dJn-uZHUKYAvIJkOraK_-8" value="titre_livre&lt;span style=&quot;white-space: pre;&quot;&gt;&#x9;&lt;/span&gt;&lt;span style=&quot;white-space: pre;&quot;&gt;&#x9;&lt;/span&gt;VARCHAR(100) not null" style="text;strokeColor=none;fillColor=none;align=left;verticalAlign=middle;spacingLeft=4;spacingRight=4;overflow=hidden;points=[[0,0.5],[1,0.5]];portConstraint=eastwest;rotatable=0;whiteSpace=wrap;html=1;labelBackgroundColor=none;fontColor=#46495D;" parent="dJn-uZHUKYAvIJkOraK_-6" vertex="1">
          <mxGeometry y="60" width="240" height="30" as="geometry" />
        </mxCell>
        <mxCell id="dJn-uZHUKYAvIJkOraK_-10" value="liens_chapitres" style="swimlane;fontStyle=0;childLayout=stackLayout;horizontal=1;startSize=30;horizontalStack=0;resizeParent=1;resizeParentMax=0;resizeLast=0;collapsible=1;marginBottom=0;whiteSpace=wrap;html=1;labelBackgroundColor=none;fillColor=#ffff88;strokeColor=#36393d;" parent="1" vertex="1">
          <mxGeometry x="-670" y="120" width="280" height="120" as="geometry" />
        </mxCell>
        <mxCell id="dJn-uZHUKYAvIJkOraK_-11" value="id_lien_chapitre&lt;span style=&quot;white-space: pre;&quot;&gt;&#x9;&lt;/span&gt;&lt;span style=&quot;white-space: pre;&quot;&gt;&#x9;&lt;/span&gt;INTEGER &amp;lt;pk&amp;gt;" style="text;strokeColor=none;fillColor=none;align=left;verticalAlign=middle;spacingLeft=4;spacingRight=4;overflow=hidden;points=[[0,0.5],[1,0.5]];portConstraint=eastwest;rotatable=0;whiteSpace=wrap;html=1;labelBackgroundColor=none;fontColor=#46495D;" parent="dJn-uZHUKYAvIJkOraK_-10" vertex="1">
          <mxGeometry y="30" width="280" height="30" as="geometry" />
        </mxCell>
        <mxCell id="dJn-uZHUKYAvIJkOraK_-12" value="no_chapitre_origine&lt;span style=&quot;white-space: pre;&quot;&gt;&#x9;&lt;/span&gt;INTEGER not null" style="text;strokeColor=none;fillColor=none;align=left;verticalAlign=middle;spacingLeft=4;spacingRight=4;overflow=hidden;points=[[0,0.5],[1,0.5]];portConstraint=eastwest;rotatable=0;whiteSpace=wrap;html=1;labelBackgroundColor=none;fontColor=#46495D;" parent="dJn-uZHUKYAvIJkOraK_-10" vertex="1">
          <mxGeometry y="60" width="280" height="30" as="geometry" />
        </mxCell>
        <mxCell id="dJn-uZHUKYAvIJkOraK_-13" value="no_chapitre_destination&lt;span style=&quot;white-space: pre;&quot;&gt;&#x9;&lt;/span&gt;INTEGER not null" style="text;strokeColor=none;fillColor=none;align=left;verticalAlign=middle;spacingLeft=4;spacingRight=4;overflow=hidden;points=[[0,0.5],[1,0.5]];portConstraint=eastwest;rotatable=0;whiteSpace=wrap;html=1;labelBackgroundColor=none;fontColor=#46495D;" parent="dJn-uZHUKYAvIJkOraK_-10" vertex="1">
          <mxGeometry y="90" width="280" height="30" as="geometry" />
        </mxCell>
        <mxCell id="dJn-uZHUKYAvIJkOraK_-14" value="sauvegardes" style="swimlane;fontStyle=0;childLayout=stackLayout;horizontal=1;startSize=30;horizontalStack=0;resizeParent=1;resizeParentMax=0;resizeLast=0;collapsible=1;marginBottom=0;whiteSpace=wrap;html=1;labelBackgroundColor=none;fillColor=#60a917;strokeColor=#000000;fontColor=#ffffff;" parent="1" vertex="1">
          <mxGeometry x="340" y="160" width="270" height="180" as="geometry" />
        </mxCell>
        <mxCell id="dJn-uZHUKYAvIJkOraK_-15" value="id_sauvegarde&lt;span style=&quot;white-space: pre;&quot;&gt;&#x9;&lt;/span&gt;&lt;span style=&quot;white-space: pre;&quot;&gt;&#x9;&lt;/span&gt;INTEGER &amp;lt;pk&amp;gt;" style="text;strokeColor=none;fillColor=none;align=left;verticalAlign=middle;spacingLeft=4;spacingRight=4;overflow=hidden;points=[[0,0.5],[1,0.5]];portConstraint=eastwest;rotatable=0;whiteSpace=wrap;html=1;labelBackgroundColor=none;fontColor=#46495D;" parent="dJn-uZHUKYAvIJkOraK_-14" vertex="1">
          <mxGeometry y="30" width="270" height="30" as="geometry" />
        </mxCell>
        <mxCell id="dJn-uZHUKYAvIJkOraK_-16" value="id_chapitre&lt;span style=&quot;white-space: pre;&quot;&gt;&#x9;&lt;/span&gt;&lt;span style=&quot;white-space: pre;&quot;&gt;&#x9;&lt;/span&gt;&lt;span style=&quot;white-space: pre;&quot;&gt;&#x9;&lt;/span&gt;INTEGER &amp;lt;fk&amp;gt; not null" style="text;strokeColor=none;fillColor=none;align=left;verticalAlign=middle;spacingLeft=4;spacingRight=4;overflow=hidden;points=[[0,0.5],[1,0.5]];portConstraint=eastwest;rotatable=0;whiteSpace=wrap;html=1;labelBackgroundColor=none;fontColor=#46495D;" parent="dJn-uZHUKYAvIJkOraK_-14" vertex="1">
          <mxGeometry y="60" width="270" height="30" as="geometry" />
        </mxCell>
        <mxCell id="dJn-uZHUKYAvIJkOraK_-17" value="id_livre&lt;span style=&quot;white-space: pre;&quot;&gt;&#x9;&lt;/span&gt;&lt;span style=&quot;white-space: pre;&quot;&gt;&#x9;&lt;/span&gt;&lt;span style=&quot;white-space: pre;&quot;&gt;&#x9;&lt;/span&gt;&lt;span style=&quot;white-space: pre;&quot;&gt;&#x9;&lt;/span&gt;INTEGER &amp;lt;fk&amp;gt; not null" style="text;strokeColor=none;fillColor=none;align=left;verticalAlign=middle;spacingLeft=4;spacingRight=4;overflow=hidden;points=[[0,0.5],[1,0.5]];portConstraint=eastwest;rotatable=0;whiteSpace=wrap;html=1;labelBackgroundColor=none;fontColor=#46495D;" parent="dJn-uZHUKYAvIJkOraK_-14" vertex="1">
          <mxGeometry y="90" width="270" height="30" as="geometry" />
        </mxCell>
        <mxCell id="dJn-uZHUKYAvIJkOraK_-18" value="id_fiche_personnage&lt;span style=&quot;white-space: pre;&quot;&gt;&#x9;&lt;/span&gt;INTEGER &amp;lt;fk&amp;gt; not null" style="text;strokeColor=none;fillColor=none;align=left;verticalAlign=middle;spacingLeft=4;spacingRight=4;overflow=hidden;points=[[0,0.5],[1,0.5]];portConstraint=eastwest;rotatable=0;whiteSpace=wrap;html=1;labelBackgroundColor=none;fontColor=#46495D;" parent="dJn-uZHUKYAvIJkOraK_-14" vertex="1">
          <mxGeometry y="120" width="270" height="30" as="geometry" />
        </mxCell>
        <mxCell id="dJn-uZHUKYAvIJkOraK_-30" value="id_joueur&lt;span style=&quot;white-space: pre;&quot;&gt;&#x9;&lt;/span&gt;&lt;span style=&quot;white-space: pre;&quot;&gt;&#x9;&lt;/span&gt;&lt;span style=&quot;white-space: pre;&quot;&gt;&#x9;&lt;/span&gt;&lt;span style=&quot;white-space: pre;&quot;&gt;&#x9;&lt;/span&gt;INTEGER &amp;lt;fk&amp;gt; not null" style="text;strokeColor=none;fillColor=none;align=left;verticalAlign=middle;spacingLeft=4;spacingRight=4;overflow=hidden;points=[[0,0.5],[1,0.5]];portConstraint=eastwest;rotatable=0;whiteSpace=wrap;html=1;labelBackgroundColor=none;fontColor=#46495D;" parent="dJn-uZHUKYAvIJkOraK_-14" vertex="1">
          <mxGeometry y="150" width="270" height="30" as="geometry" />
        </mxCell>
        <mxCell id="dJn-uZHUKYAvIJkOraK_-19" value="fiche_personnage" style="swimlane;fontStyle=0;childLayout=stackLayout;horizontal=1;startSize=30;horizontalStack=0;resizeParent=1;resizeParentMax=0;resizeLast=0;collapsible=1;marginBottom=0;whiteSpace=wrap;html=1;labelBackgroundColor=none;fillColor=#B677E0;strokeColor=#000000;fillStyle=auto;" parent="1" vertex="1">
          <mxGeometry x="-90" y="310" width="330" height="150" as="geometry" />
        </mxCell>
        <mxCell id="dJn-uZHUKYAvIJkOraK_-20" value="id_fiche_personnage&lt;span style=&quot;white-space: pre;&quot;&gt;&#x9;&lt;/span&gt;INTEGER &amp;lt;pk&amp;gt;" style="text;strokeColor=none;fillColor=none;align=left;verticalAlign=middle;spacingLeft=4;spacingRight=4;overflow=hidden;points=[[0,0.5],[1,0.5]];portConstraint=eastwest;rotatable=0;whiteSpace=wrap;html=1;labelBackgroundColor=none;fontColor=#46495D;" parent="dJn-uZHUKYAvIJkOraK_-19" vertex="1">
          <mxGeometry y="30" width="330" height="30" as="geometry" />
        </mxCell>
        <mxCell id="dJn-uZHUKYAvIJkOraK_-21" value="id_discipline&lt;span style=&quot;white-space: pre;&quot;&gt;&#x9;&lt;/span&gt;&lt;span style=&quot;white-space: pre;&quot;&gt;&#x9;&lt;/span&gt;&lt;span style=&quot;white-space: pre;&quot;&gt;&#x9;&lt;/span&gt;INTEGER &amp;lt;fk&amp;gt; not null" style="text;strokeColor=none;fillColor=none;align=left;verticalAlign=middle;spacingLeft=4;spacingRight=4;overflow=hidden;points=[[0,0.5],[1,0.5]];portConstraint=eastwest;rotatable=0;whiteSpace=wrap;html=1;labelBackgroundColor=none;fontColor=#46495D;" parent="dJn-uZHUKYAvIJkOraK_-19" vertex="1">
          <mxGeometry y="60" width="330" height="30" as="geometry" />
        </mxCell>
        <mxCell id="dJn-uZHUKYAvIJkOraK_-23" value="id_arme&lt;span style=&quot;white-space: pre;&quot;&gt;&#x9;&lt;/span&gt;&lt;span style=&quot;white-space: pre;&quot;&gt;&#x9;&lt;/span&gt;&lt;span style=&quot;white-space: pre;&quot;&gt;&#x9;&lt;/span&gt;&lt;span style=&quot;white-space: pre;&quot;&gt;&#x9;&lt;/span&gt;INTEGER &amp;lt;fk&amp;gt; not null" style="text;strokeColor=none;fillColor=none;align=left;verticalAlign=middle;spacingLeft=4;spacingRight=4;overflow=hidden;points=[[0,0.5],[1,0.5]];portConstraint=eastwest;rotatable=0;whiteSpace=wrap;html=1;labelBackgroundColor=none;fontColor=#46495D;" parent="dJn-uZHUKYAvIJkOraK_-19" vertex="1">
          <mxGeometry y="90" width="330" height="30" as="geometry" />
        </mxCell>
        <mxCell id="dJn-uZHUKYAvIJkOraK_-35" value="id_sac_a_dos&lt;span style=&quot;white-space: pre;&quot;&gt;&#x9;&lt;/span&gt;&lt;span style=&quot;white-space: pre;&quot;&gt;&#x9;&lt;/span&gt;&lt;span style=&quot;white-space: pre;&quot;&gt;&#x9;&lt;/span&gt;INTEGER &amp;lt;fk&amp;gt; not null" style="text;strokeColor=none;fillColor=none;align=left;verticalAlign=middle;spacingLeft=4;spacingRight=4;overflow=hidden;points=[[0,0.5],[1,0.5]];portConstraint=eastwest;rotatable=0;whiteSpace=wrap;html=1;labelBackgroundColor=none;fontColor=#46495D;" parent="dJn-uZHUKYAvIJkOraK_-19" vertex="1">
          <mxGeometry y="120" width="330" height="30" as="geometry" />
        </mxCell>
        <mxCell id="dJn-uZHUKYAvIJkOraK_-31" value="joueur" style="swimlane;fontStyle=0;childLayout=stackLayout;horizontal=1;startSize=30;horizontalStack=0;resizeParent=1;resizeParentMax=0;resizeLast=0;collapsible=1;marginBottom=0;whiteSpace=wrap;html=1;labelBackgroundColor=none;fillColor=#0050ef;strokeColor=#000000;fontColor=#ffffff;" parent="1" vertex="1">
          <mxGeometry x="365" y="410" width="220" height="90" as="geometry" />
        </mxCell>
        <mxCell id="dJn-uZHUKYAvIJkOraK_-32" value="id_joueur&lt;span style=&quot;white-space: pre;&quot;&gt;&#x9;&lt;/span&gt;&lt;span style=&quot;white-space: pre;&quot;&gt;&#x9;&lt;/span&gt;INTEGER &amp;lt;pk&amp;gt;" style="text;strokeColor=none;fillColor=none;align=left;verticalAlign=middle;spacingLeft=4;spacingRight=4;overflow=hidden;points=[[0,0.5],[1,0.5]];portConstraint=eastwest;rotatable=0;whiteSpace=wrap;html=1;labelBackgroundColor=none;fontColor=#46495D;" parent="dJn-uZHUKYAvIJkOraK_-31" vertex="1">
          <mxGeometry y="30" width="220" height="30" as="geometry" />
        </mxCell>
        <mxCell id="dJn-uZHUKYAvIJkOraK_-33" value="nom_joueur&lt;span style=&quot;white-space: pre;&quot;&gt;&#x9;&lt;/span&gt;VARCHAR(255) not null" style="text;strokeColor=none;fillColor=none;align=left;verticalAlign=middle;spacingLeft=4;spacingRight=4;overflow=hidden;points=[[0,0.5],[1,0.5]];portConstraint=eastwest;rotatable=0;whiteSpace=wrap;html=1;labelBackgroundColor=none;fontColor=#46495D;" parent="dJn-uZHUKYAvIJkOraK_-31" vertex="1">
          <mxGeometry y="60" width="220" height="30" as="geometry" />
        </mxCell>
        <mxCell id="dJn-uZHUKYAvIJkOraK_-37" value="disciplines_kai" style="swimlane;fontStyle=0;childLayout=stackLayout;horizontal=1;startSize=30;horizontalStack=0;resizeParent=1;resizeParentMax=0;resizeLast=0;collapsible=1;marginBottom=0;whiteSpace=wrap;html=1;labelBackgroundColor=none;strokeColor=#000000;fillColor=#CCCCCC;" parent="1" vertex="1">
          <mxGeometry x="-550" y="370" width="250" height="90" as="geometry" />
        </mxCell>
        <mxCell id="dJn-uZHUKYAvIJkOraK_-38" value="id_discipline&lt;span style=&quot;white-space: pre;&quot;&gt;&#x9;&lt;span style=&quot;white-space: pre;&quot;&gt;&#x9;&lt;/span&gt;&lt;/span&gt;INTEGER &amp;lt;pk&amp;gt;" style="text;strokeColor=none;fillColor=none;align=left;verticalAlign=middle;spacingLeft=4;spacingRight=4;overflow=hidden;points=[[0,0.5],[1,0.5]];portConstraint=eastwest;rotatable=0;whiteSpace=wrap;html=1;labelBackgroundColor=none;fontColor=#46495D;" parent="dJn-uZHUKYAvIJkOraK_-37" vertex="1">
          <mxGeometry y="30" width="250" height="30" as="geometry" />
        </mxCell>
        <mxCell id="dJn-uZHUKYAvIJkOraK_-39" value="nom_discipline&lt;span style=&quot;white-space: pre;&quot;&gt;&#x9;&lt;/span&gt;VARCHAR(255) not null" style="text;strokeColor=none;fillColor=none;align=left;verticalAlign=middle;spacingLeft=4;spacingRight=4;overflow=hidden;points=[[0,0.5],[1,0.5]];portConstraint=eastwest;rotatable=0;whiteSpace=wrap;html=1;labelBackgroundColor=none;fontColor=#46495D;" parent="dJn-uZHUKYAvIJkOraK_-37" vertex="1">
          <mxGeometry y="60" width="250" height="30" as="geometry" />
        </mxCell>
        <mxCell id="dJn-uZHUKYAvIJkOraK_-41" value="armes" style="swimlane;fontStyle=0;childLayout=stackLayout;horizontal=1;startSize=30;horizontalStack=0;resizeParent=1;resizeParentMax=0;resizeLast=0;collapsible=1;marginBottom=0;whiteSpace=wrap;html=1;labelBackgroundColor=none;fillColor=#b3bdc1;strokeColor=#000000;" parent="1" vertex="1">
          <mxGeometry x="-413" y="510" width="230" height="90" as="geometry" />
        </mxCell>
        <mxCell id="dJn-uZHUKYAvIJkOraK_-42" value="id_arme&lt;span style=&quot;white-space: pre;&quot;&gt;&#x9;&lt;/span&gt;&lt;span style=&quot;white-space: pre;&quot;&gt;&#x9;&lt;/span&gt;INTEGER &amp;lt;pk&amp;gt;" style="text;strokeColor=none;fillColor=none;align=left;verticalAlign=middle;spacingLeft=4;spacingRight=4;overflow=hidden;points=[[0,0.5],[1,0.5]];portConstraint=eastwest;rotatable=0;whiteSpace=wrap;html=1;labelBackgroundColor=none;fontColor=#46495D;" parent="dJn-uZHUKYAvIJkOraK_-41" vertex="1">
          <mxGeometry y="30" width="230" height="30" as="geometry" />
        </mxCell>
        <mxCell id="dJn-uZHUKYAvIJkOraK_-43" value="nom_arme&lt;span style=&quot;white-space: pre;&quot;&gt;&#x9;&lt;/span&gt;VARCHAR(255) not null" style="text;strokeColor=none;fillColor=none;align=left;verticalAlign=middle;spacingLeft=4;spacingRight=4;overflow=hidden;points=[[0,0.5],[1,0.5]];portConstraint=eastwest;rotatable=0;whiteSpace=wrap;html=1;labelBackgroundColor=none;fontColor=#46495D;" parent="dJn-uZHUKYAvIJkOraK_-41" vertex="1">
          <mxGeometry y="60" width="230" height="30" as="geometry" />
        </mxCell>
        <mxCell id="dJn-uZHUKYAvIJkOraK_-45" value="sac_a_dos" style="swimlane;fontStyle=0;childLayout=stackLayout;horizontal=1;startSize=30;horizontalStack=0;resizeParent=1;resizeParentMax=0;resizeLast=0;collapsible=1;marginBottom=0;whiteSpace=wrap;html=1;labelBackgroundColor=none;fillColor=#00A0A0;strokeColor=#000000;fontColor=#ffffff;" parent="1" vertex="1">
          <mxGeometry x="-78.5" y="585" width="307" height="180" as="geometry" />
        </mxCell>
        <mxCell id="dJn-uZHUKYAvIJkOraK_-46" value="id_sac_a_dos&lt;span style=&quot;white-space: pre;&quot;&gt;&#x9;&lt;/span&gt;&lt;span style=&quot;white-space: pre;&quot;&gt;&#x9;&lt;/span&gt;INTEGER &amp;lt;pk&amp;gt;" style="text;strokeColor=none;fillColor=none;align=left;verticalAlign=middle;spacingLeft=4;spacingRight=4;overflow=hidden;points=[[0,0.5],[1,0.5]];portConstraint=eastwest;rotatable=0;whiteSpace=wrap;html=1;labelBackgroundColor=none;fontColor=#46495D;" parent="dJn-uZHUKYAvIJkOraK_-45" vertex="1">
          <mxGeometry y="30" width="307" height="30" as="geometry" />
        </mxCell>
        <mxCell id="dJn-uZHUKYAvIJkOraK_-47" value="objet&amp;nbsp;&lt;span style=&quot;white-space: pre;&quot;&gt;&#x9;&lt;/span&gt;&lt;span style=&quot;white-space: pre;&quot;&gt;&#x9;&lt;/span&gt;&lt;span style=&quot;white-space: pre;&quot;&gt;&#x9;&lt;/span&gt;VARCHAR(100) not null" style="text;strokeColor=none;fillColor=none;align=left;verticalAlign=middle;spacingLeft=4;spacingRight=4;overflow=hidden;points=[[0,0.5],[1,0.5]];portConstraint=eastwest;rotatable=0;whiteSpace=wrap;html=1;labelBackgroundColor=none;fontColor=#46495D;" parent="dJn-uZHUKYAvIJkOraK_-45" vertex="1">
          <mxGeometry y="60" width="307" height="30" as="geometry" />
        </mxCell>
        <mxCell id="dJn-uZHUKYAvIJkOraK_-48" value="repas&amp;nbsp;&lt;span style=&quot;white-space: pre;&quot;&gt;&#x9;&lt;/span&gt;&lt;span style=&quot;white-space: pre;&quot;&gt;&#x9;&lt;/span&gt;&lt;span style=&quot;white-space: pre;&quot;&gt;&#x9;&lt;/span&gt;VARCHAR(100) not null" style="text;strokeColor=none;fillColor=none;align=left;verticalAlign=middle;spacingLeft=4;spacingRight=4;overflow=hidden;points=[[0,0.5],[1,0.5]];portConstraint=eastwest;rotatable=0;whiteSpace=wrap;html=1;labelBackgroundColor=none;fontColor=#46495D;" parent="dJn-uZHUKYAvIJkOraK_-45" vertex="1">
          <mxGeometry y="90" width="307" height="30" as="geometry" />
        </mxCell>
        <mxCell id="dJn-uZHUKYAvIJkOraK_-49" value="objets_speciaux&lt;span style=&quot;white-space: pre;&quot;&gt;&#x9;&lt;/span&gt;VARCHAR(100) not null" style="text;strokeColor=none;fillColor=none;align=left;verticalAlign=middle;spacingLeft=4;spacingRight=4;overflow=hidden;points=[[0,0.5],[1,0.5]];portConstraint=eastwest;rotatable=0;whiteSpace=wrap;html=1;labelBackgroundColor=none;fontColor=#46495D;" parent="dJn-uZHUKYAvIJkOraK_-45" vertex="1">
          <mxGeometry y="120" width="307" height="30" as="geometry" />
        </mxCell>
        <mxCell id="dJn-uZHUKYAvIJkOraK_-66" value="valeur_bourse&lt;span style=&quot;white-space: pre;&quot;&gt;&#x9;&lt;/span&gt;&lt;span style=&quot;white-space: pre;&quot;&gt;&#x9;&lt;/span&gt;INTEGER not null" style="text;strokeColor=none;fillColor=none;align=left;verticalAlign=middle;spacingLeft=4;spacingRight=4;overflow=hidden;points=[[0,0.5],[1,0.5]];portConstraint=eastwest;rotatable=0;whiteSpace=wrap;html=1;labelBackgroundColor=none;fontColor=#46495D;" parent="dJn-uZHUKYAvIJkOraK_-45" vertex="1">
          <mxGeometry y="150" width="307" height="30" as="geometry" />
        </mxCell>
        <mxCell id="dJn-uZHUKYAvIJkOraK_-68" value="Contraintes" style="swimlane;fontStyle=0;childLayout=stackLayout;horizontal=1;startSize=30;horizontalStack=0;resizeParent=1;resizeParentMax=0;resizeLast=0;collapsible=1;marginBottom=0;whiteSpace=wrap;html=1;labelBackgroundColor=none;fillColor=#e51400;strokeColor=#B20000;fontColor=#ffffff;" parent="1" vertex="1">
          <mxGeometry x="414" y="740" width="380" height="90" as="geometry" />
        </mxCell>
        <mxCell id="dJn-uZHUKYAvIJkOraK_-69" value="Le personnage ne peut pas acquérir plus de 5 disciplines.&amp;nbsp;" style="text;strokeColor=none;fillColor=none;align=left;verticalAlign=middle;spacingLeft=4;spacingRight=4;overflow=hidden;points=[[0,0.5],[1,0.5]];portConstraint=eastwest;rotatable=0;whiteSpace=wrap;html=1;labelBackgroundColor=none;fontColor=#46495D;" parent="dJn-uZHUKYAvIJkOraK_-68" vertex="1">
          <mxGeometry y="30" width="380" height="30" as="geometry" />
        </mxCell>
        <mxCell id="dJn-uZHUKYAvIJkOraK_-70" value="Le personnage ne peut pas transporter plus de 2 armes." style="text;strokeColor=none;fillColor=none;align=left;verticalAlign=middle;spacingLeft=4;spacingRight=4;overflow=hidden;points=[[0,0.5],[1,0.5]];portConstraint=eastwest;rotatable=0;whiteSpace=wrap;html=1;labelBackgroundColor=none;fontColor=#46495D;" parent="dJn-uZHUKYAvIJkOraK_-68" vertex="1">
          <mxGeometry y="60" width="380" height="30" as="geometry" />
        </mxCell>
        <mxCell id="dJn-uZHUKYAvIJkOraK_-75" style="edgeStyle=orthogonalEdgeStyle;rounded=0;orthogonalLoop=1;jettySize=auto;html=1;labelBackgroundColor=none;strokeColor=#000000;fontColor=default;" parent="1" source="dJn-uZHUKYAvIJkOraK_-24" target="dJn-uZHUKYAvIJkOraK_-7" edge="1">
          <mxGeometry relative="1" as="geometry" />
        </mxCell>
        <mxCell id="dJn-uZHUKYAvIJkOraK_-77" style="edgeStyle=orthogonalEdgeStyle;rounded=0;orthogonalLoop=1;jettySize=auto;html=1;strokeColor=#000000;fontColor=#46495D;fillColor=#B2C9AB;" parent="1" source="dJn-uZHUKYAvIJkOraK_-17" target="dJn-uZHUKYAvIJkOraK_-7" edge="1">
          <mxGeometry relative="1" as="geometry" />
        </mxCell>
        <mxCell id="dJn-uZHUKYAvIJkOraK_-78" style="edgeStyle=orthogonalEdgeStyle;rounded=0;orthogonalLoop=1;jettySize=auto;html=1;strokeColor=#000000;fontColor=#46495D;fillColor=#B2C9AB;" parent="1" source="dJn-uZHUKYAvIJkOraK_-16" target="dJn-uZHUKYAvIJkOraK_-3" edge="1">
          <mxGeometry relative="1" as="geometry">
            <Array as="points">
              <mxPoint x="640" y="235" />
              <mxPoint x="640" y="95" />
            </Array>
          </mxGeometry>
        </mxCell>
        <mxCell id="dJn-uZHUKYAvIJkOraK_-79" style="edgeStyle=orthogonalEdgeStyle;rounded=0;orthogonalLoop=1;jettySize=auto;html=1;strokeColor=#000000;fontColor=#46495D;fillColor=#B2C9AB;" parent="1" source="dJn-uZHUKYAvIJkOraK_-18" target="dJn-uZHUKYAvIJkOraK_-20" edge="1">
          <mxGeometry relative="1" as="geometry" />
        </mxCell>
        <mxCell id="dJn-uZHUKYAvIJkOraK_-80" style="edgeStyle=orthogonalEdgeStyle;rounded=0;orthogonalLoop=1;jettySize=auto;html=1;strokeColor=#000000;fontColor=#46495D;fillColor=#B2C9AB;" parent="1" source="dJn-uZHUKYAvIJkOraK_-30" target="dJn-uZHUKYAvIJkOraK_-32" edge="1">
          <mxGeometry relative="1" as="geometry">
            <Array as="points">
              <mxPoint x="640" y="325" />
              <mxPoint x="640" y="455" />
            </Array>
          </mxGeometry>
        </mxCell>
        <mxCell id="dJn-uZHUKYAvIJkOraK_-81" style="edgeStyle=orthogonalEdgeStyle;rounded=0;orthogonalLoop=1;jettySize=auto;html=1;strokeColor=#000000;fontColor=#46495D;fillColor=#B2C9AB;" parent="1" source="dJn-uZHUKYAvIJkOraK_-21" target="dJn-uZHUKYAvIJkOraK_-38" edge="1">
          <mxGeometry relative="1" as="geometry" />
        </mxCell>
        <mxCell id="dJn-uZHUKYAvIJkOraK_-82" style="edgeStyle=orthogonalEdgeStyle;rounded=0;orthogonalLoop=1;jettySize=auto;html=1;strokeColor=#000000;fontColor=#46495D;fillColor=#B2C9AB;" parent="1" source="dJn-uZHUKYAvIJkOraK_-23" target="dJn-uZHUKYAvIJkOraK_-42" edge="1">
          <mxGeometry relative="1" as="geometry" />
        </mxCell>
        <mxCell id="dJn-uZHUKYAvIJkOraK_-83" style="edgeStyle=orthogonalEdgeStyle;rounded=0;orthogonalLoop=1;jettySize=auto;html=1;strokeColor=#000000;fontColor=#46495D;fillColor=#B2C9AB;" parent="1" source="dJn-uZHUKYAvIJkOraK_-35" target="dJn-uZHUKYAvIJkOraK_-46" edge="1">
          <mxGeometry relative="1" as="geometry">
            <Array as="points">
              <mxPoint x="260" y="475" />
              <mxPoint x="260" y="630" />
            </Array>
          </mxGeometry>
        </mxCell>
        <mxCell id="hXwuIzg9YuTCTMOAW4NJ-3" style="edgeStyle=orthogonalEdgeStyle;rounded=0;orthogonalLoop=1;jettySize=auto;html=1;" edge="1" parent="1" source="dJn-uZHUKYAvIJkOraK_-12" target="dJn-uZHUKYAvIJkOraK_-3">
          <mxGeometry relative="1" as="geometry" />
        </mxCell>
        <mxCell id="hXwuIzg9YuTCTMOAW4NJ-4" style="edgeStyle=orthogonalEdgeStyle;rounded=0;orthogonalLoop=1;jettySize=auto;html=1;" edge="1" parent="1" source="dJn-uZHUKYAvIJkOraK_-13" target="dJn-uZHUKYAvIJkOraK_-3">
          <mxGeometry relative="1" as="geometry" />
        </mxCell>
      </root>
    </mxGraphModel>
  </diagram>
</mxfile>
